# xmcd
#
# Track frame offsets: 
#        150
#        19938
#        38923
#        61335
#        83621
#        105994
#        122545
#        140481
#        167007
#        186754
#
# Disc length: 2939 seconds
#
# Revision: 1
# Processed by: cddbd v1.5.2PL0 Copyright (c) Steve Scherf et al.
# Submitted via: ExactAudioCopy v0.99pb5
#
DISCID=780b790a
DTITLE=Heatwave - Candles
DYEAR=2007
DGENRE=Pop/Funk
TTITLE0=Gansters Of The Groove
TTITLE1=Jitterbuggin'
TTITLE2=Party Suite
TTITLE3=Turn Around
TTITLE4=Posin' Til Closin'
TTITLE5=All I Am
TTITLE6=Dreamin' You
TTITLE7=Goin' Crazy
TTITLE8=Where Did I Go Wrong
TTITLE9=Mind Blowing Decisions (Extended Remix)
EXTD=
EXTT0=
EXTT1=
EXTT2=
EXTT3=
EXTT4=
EXTT5=
EXTT6=
EXTT7=
EXTT8=
EXTT9=
PLAYORDER=
